PathFileType	4	(X/Y/Z)	W14_1_OpenSim.trc																																																																																																																						
DataRate	CameraRate	NumFrames	NumMarkers	Units	OrigDataRate	OrigDataStartFrame	OrigNumFrames																																																																																																																		
100	100	7	40	mm	100	1501	3000																																																																																																																		
Frame#	Time	R.ASIS			R.PSIS			S2			L.PSIS			L.ASIS			R.TH1			R.TH2			R.TH3			R.MKnee			R.Knee			R.SH1			R.SH2			R.SH3			R.SH4			R.Ankle			R.MAnkle			R.Heel			R.MT5			R.MT1			L.TH1			L.TH2			L.TH3			L.TH4			L.MKnee			L.Knee			L.SH1			L.SH2			L.SH3			L.Ankle			L.MAnkle			L.Heel			L.MT5			L.MT1			R.Acr			L.Acr			C7			T10			Clav			Sternum			R.Back		
		X1	Y1	Z1	X2	Y2	Z2	X3	Y3	Z3	X4	Y4	Z4	X5	Y5	Z5	X6	Y6	Z6	X7	Y7	Z7	X8	Y8	Z8	X9	Y9	Z9	X10	Y10	Z10	X11	Y11	Z11	X12	Y12	Z12	X13	Y13	Z13	X14	Y14	Z14	X15	Y15	Z15	X16	Y16	Z16	X17	Y17	Z17	X18	Y18	Z18	X19	Y19	Z19	X20	Y20	Z20	X21	Y21	Z21	X22	Y22	Z22	X23	Y23	Z23	X24	Y24	Z24	X25	Y25	Z25	X26	Y26	Z26	X27	Y27	Z27	X28	Y28	Z28	X29	Y29	Z29	X30	Y30	Z30	X31	Y31	Z31	X32	Y32	Z32	X33	Y33	Z33	X34	Y34	Z34	X35	Y35	Z35	X36	Y36	Z36	X37	Y37	Z37	X38	Y38	Z38	X39	Y39	Z39	X40	Y40	Z40
1501	15	995.9112	1063.2839	-438.9317	808.4866	1063.2427	-532.5647	800.6667	1061.412	-578.0635	807.9425	1069.931	-627.6489	987.033	1065.7999	-731.9689	1055.9376	753.4789	-408.6891	980.7203	720.8179	-403.2341	1025.3718	620.1549	-406.6299	1092.9003	511.8946	-524.4291	1076.8842	520.8231	-405.9153	984.2217	388.9034	-403.4034	911.1429	304.124	-419.0488	922.6683	444.0531	-405.8121	850.2039	356.4997	-411.5112	754.6097	232.5851	-417.779	800.7234	215.921	-506.252	692.9855	250.8434	-482.7722	795.4341	119.9487	-383.5261	839.4179	86.0209	-466.4935	1019.2945	768.8315	-743.3146	1025.0541	660.5981	-729.5714	936.2634	759.3437	-753.4249	945.4751	651.7416	-732.4717	1008.1064	511.3415	-601.0823	1007.8912	514.7655	-711.9256	998.6544	379.1683	-726.4443	918.0077	392.1051	-735.4728	903.0299	283.3062	-727.274	922.5779	81.971	-718.0754	951.9854	93.1962	-618.7145	856.0104	42.7445	-663.0544	1029.0658	32.7039	-733.273	1068.6096	44.6378	-633.1365	960.1139	1469.6274	-438.2655	920.1647	1449.6328	-757.7127	896.517	1504.8314	-599.9947	842.6099	1175.9048	-578.7516	1021.6211	1396.8956	-603.5226	1043.3611	1257.9758	-588.5151	810.134	1413.8285	-505.0092
1502	15.01	994.7621	1065.4086	-439.5076	807.3412	1064.6147	-532.5677	799.4456	1062.6563	-578.0454	806.6163	1071.0967	-627.6541	985.7195	1066.6892	-732.6299	1059.1542	758.6374	-408.0079	984.5494	724.4545	-402.8596	1031.2263	624.7035	-406.1873	1101.491	517.6968	-524.0201	1085.0708	526.0251	-405.6606	997.7587	390.0543	-403.0809	928.6219	302.1219	-419.0612	933.8435	442.3568	-405.7968	865.2118	351.8051	-411.5232	775.4587	223.1171	-417.5354	822.477	209.004	-506.1066	712.9438	238.0437	-482.6214	822.1875	112.8229	-383.2708	868.1078	81.4019	-466.2463	1013.8001	768.4075	-743.6976	1017.6075	660.1331	-730.1716	930.6633	760.5212	-753.8467	937.9711	652.7269	-732.8481	998.0092	510.9081	-601.688	997.0574	514.4622	-712.5466	986.6079	378.9999	-726.9452	906.13	392.5459	-735.7685	890.4117	283.8627	-727.4806	908.7255	82.1108	-718.1226	938.2539	93.4008	-618.7629	842.0316	43.1255	-663.092	1015.1351	32.6698	-733.3124	1054.6819	44.5956	-633.2178	958.1394	1471.0323	-438.2023	921.5921	1451.5931	-758.1079	896.21	1506.3767	-600.593	841.6369	1177.5555	-580.0207	1021.1281	1398.4936	-603.1398	1042.6748	1259.6504	-588.2909	808.8977	1415.4559	-506.7567
1503	15.02	993.6893	1067.0566	-440.0274	806.1861	1065.6228	-532.3881	798.2024	1063.5426	-577.839	805.2207	1071.9255	-627.4794	984.2737	1067.2972	-733.2864	1062.0304	763.3435	-407.369	988.047	727.7783	-402.3274	1036.5385	628.8838	-405.6936	1109.2112	523.1066	-523.6638	1092.5082	530.8558	-405.4472	1011.0702	390.7869	-402.627	946.2754	299.6672	-418.8278	944.76	439.9284	-405.5169	880.3789	346.345	-411.2037	797.091	212.8054	-416.8589	844.8829	201.3865	-505.4946	733.8292	224.1605	-481.9576	849.8892	105.3386	-382.5862	897.6119	76.5978	-465.5864	1008.1921	767.8715	-744.0366	1010.0871	659.6047	-730.7106	924.9814	761.5477	-754.1796	930.4076	653.6128	-733.1398	987.8896	510.4201	-602.2529	986.2376	514.1363	-713.1486	974.6453	378.8031	-727.3942	894.3292	392.9694	-736.0484	877.8568	284.4107	-727.6589	894.8896	82.2615	-718.1472	924.5146	93.5988	-618.8081	828.0884	43.4801	-663.1092	1001.2283	32.6277	-733.3365	1040.7714	44.5726	-633.2805	956.2444	1472.0718	-438.0944	922.9798	1453.2552	-758.3868	895.9026	1507.6285	-601.0966	840.6874	1178.8772	-581.1634	1020.6527	1399.7793	-602.7275	1042.0236	1260.9789	-588.0527	807.7017	1416.7753	-508.3831
1504	15.03	992.7219	1068.2578	-440.5225	805.0493	1066.3226	-532.0585	796.9716	1064.1263	-577.4764	803.7931	1072.4717	-627.1568	982.7441	1067.6145	-733.9141	1064.5742	767.5408	-406.809	991.2054	730.7415	-401.6696	1041.3015	632.6346	-405.1795	1116.0105	528.0158	-523.3969	1099.1804	535.2402	-405.3092	1024.1486	391.1086	-402.0732	964.058	296.8489	-418.3263	955.4506	436.7944	-405.0052	895.7515	340.1994	-410.563	819.5341	201.8397	-415.7618	867.9448	193.2014	-504.4284	755.7071	209.3621	-480.7824	878.5345	97.7203	-381.4439	927.8769	71.7945	-464.4789	1002.5251	767.227	-744.3046	1002.5356	659.0009	-731.169	919.2654	762.4245	-754.4368	922.8278	654.3958	-733.3733	977.7871	509.8775	-602.766	975.4835	513.7819	-713.7306	962.8071	378.5728	-727.8081	882.6381	393.3772	-736.3185	865.3813	284.9524	-727.8187	881.0707	82.4256	-718.1519	910.7582	93.7714	-618.8501	814.2033	43.7912	-663.0991	987.3287	32.5822	-733.3574	1026.8742	44.584	-633.3281	954.4367	1472.7333	-437.9451	924.3004	1454.6001	-758.5564	895.5969	1508.578	-601.5079	839.7731	1179.8658	-582.1672	1020.2009	1400.7327	-602.2967	1041.4185	1261.9425	-587.7909	806.5467	1417.7712	-509.8847
1505	15.04	991.8733	1069.052	-441.0093	803.96	1066.7688	-531.6179	795.7862	1064.462	-576.9959	802.3699	1072.7889	-626.723	981.1854	1067.6389	-734.4868	1066.7953	771.1868	-406.3518	994.011	733.3093	-400.9341	1045.5016	635.9091	-404.6819	1121.8562	532.327	-523.2439	1105.0807	539.1082	-405.2728	1036.9915	391.0295	-401.4483	981.943	293.7456	-417.5721	965.9614	432.9807	-404.2837	911.3716	333.4579	-409.6152	842.8144	190.418	-414.2604	891.672	184.5903	-502.9385	778.638	193.8436	-479.1184	908.0873	90.1835	-379.8271	958.8461	67.1652	-462.9026	996.8575	766.4739	-744.4846	994.9971	658.3101	-731.5318	913.5643	763.152	-754.6384	915.2805	655.0682	-733.5758	967.7438	509.2837	-603.2293	964.8373	513.391	-714.2871	951.1042	378.3056	-728.2009	871.0721	393.7713	-736.5684	852.9873	285.4919	-727.9592	867.2662	82.6039	-718.14	896.9783	93.8978	-618.884	800.3773	44.0582	-663.0584	973.4225	32.5384	-733.3874	1012.9889	44.6312	-633.3709	952.7241	1473.0175	-437.7563	925.536	1455.6169	-758.6289	895.296	1509.2201	-601.8294	838.9028	1180.5264	-583.0188	1019.7758	1401.3427	-601.8555	1040.8709	1262.5336	-587.4964	805.436	1418.438	-511.2604
1506	15.05	991.1466	1069.4783	-441.484	802.9471	1067.0045	-531.1039	794.6756	1064.5942	-576.4378	800.9831	1072.9219	-626.2151	979.648	1067.3754	-734.9822	1068.6963	774.2482	-406.0112	996.4421	735.4514	-400.1813	1049.1151	638.6655	-404.243	1126.7267	535.9518	-523.2129	1110.2048	542.3951	-405.3529	1049.5955	390.5699	-400.7781	999.9167	290.4303	-416.6054	976.34	428.5175	-403.3669	927.2709	326.2167	-408.3772	866.9548	178.7449	-412.3736	916.0717	175.708	-501.0675	802.6659	177.8301	-477.0045	938.4808	82.9395	-377.7385	990.4567	62.8769	-460.8582	991.24	765.6097	-744.5708	987.5136	657.5238	-731.7878	907.9219	763.7289	-754.8063	907.8137	655.6213	-733.7687	957.7976	508.6433	-603.6542	954.3318	512.9573	-714.8058	939.5282	378.0003	-728.574	859.6361	394.153	-736.7801	840.6688	286.0341	-728.0729	853.4716	82.7962	-718.1122	883.1766	93.9652	-618.9006	786.5908	44.2958	-662.9871	959.5013	32.502	-733.4353	999.1107	44.7052	-633.4164	951.1161	1472.9351	-437.5281	926.6775	1456.3036	-758.6163	895.0034	1509.5542	-602.0644	838.0853	1180.869	-583.7055	1019.3801	1401.6069	-601.4052	1040.386	1262.7522	-587.1638	804.3752	1418.7802	-512.5104
1507	15.06	990.5397	1069.5686	-441.9247	802.035	1067.058	-530.5473	793.6621	1064.5542	-575.8377	799.6608	1072.9014	-625.6652	978.1701	1066.8332	-735.3851	1070.2661	776.6918	-405.7973	998.467	737.1352	-399.477	1052.1041	640.861	-403.9072	1130.6073	538.8125	-523.2986	1114.5481	545.0425	-405.5514	1061.9481	389.7644	-400.0857	1017.9655	286.9813	-415.4715	986.6239	423.4448	-402.2666	943.4662	318.5774	-406.868	891.9658	167.0312	-410.1261	941.1375	166.725	-498.8693	827.8124	161.5722	-474.4879	969.6252	76.1986	-375.2065	1022.6343	59.097	-458.3748	985.7061	764.6306	-744.566	980.1236	656.6384	-731.932	902.3731	764.1526	-754.9594	900.4666	656.048	-733.9633	947.9769	507.9563	-604.0557	943.9943	512.4777	-715.2684	928.0663	377.6588	-728.9167	848.3303	394.5241	-736.9393	828.4156	286.5854	-728.1529	839.6825	83.0027	-718.0666	869.3637	93.972	-618.8909	772.8171	44.5245	-662.8887	945.5624	32.4799	-733.5027	985.2267	44.7943	-633.4634	949.6259	1472.5037	-437.2579	927.7237	1456.6652	-758.5278	894.7239	1509.5837	-602.217	837.328	1180.9063	-584.2192	1019.02	1401.5306	-600.9394	1039.9576	1262.6047	-586.7939	803.3745	1418.8103	-513.6332
